<svg xmlns="http://www.w3.org/2000/svg" width="353.115" height="32.535" viewBox="0 0 353.115 32.535">
  <path id="Path_1" data-name="Path 1" d="M14-26.01a4.231,4.231,0,0,0-2.768.832,2.712,2.712,0,0,0-1.012,2.205,2.493,2.493,0,0,0,1.238,2.182,22.625,22.625,0,0,0,5.715,1.913A16.086,16.086,0,0,1,24.12-15.57,8.168,8.168,0,0,1,26.6-9.135a8.494,8.494,0,0,1-3.173,6.863A12.647,12.647,0,0,1,15.075.36,19.32,19.32,0,0,1,1.62-5.175l4.185-5.13Q10.89-5.85,15.21-5.85a4.937,4.937,0,0,0,3.038-.832,2.672,2.672,0,0,0,1.1-2.25,2.622,2.622,0,0,0-1.17-2.25,15.262,15.262,0,0,0-4.635-1.688q-5.49-1.3-8.033-3.4T2.97-22.838a8.144,8.144,0,0,1,3.217-6.907,12.948,12.948,0,0,1,8.033-2.43,19.32,19.32,0,0,1,6.3,1.08,16.872,16.872,0,0,1,5.49,3.06l-3.555,5.13A13.85,13.85,0,0,0,14-26.01ZM55.26-31.455V-25.2H39.6v6.48H53.685v5.985H39.6V-6.21H55.755V0H32.58V-31.455ZM62.01,0V-31.455h7.02v25.2H82.44V0Zm47.16-31.455v6.165H94.59v6.8h13.86v6.165H94.59V0H87.57V-31.455Zm5.085,20.925v-5.985h16.02v5.985ZM151.6-6.21a10.359,10.359,0,0,0,8.46-4.095l4.5,4.635Q159.21.36,151.942.36a16.428,16.428,0,0,1-11.97-4.59,15.511,15.511,0,0,1-4.7-11.588A15.655,15.655,0,0,1,140.063-27.5a16.142,16.142,0,0,1,11.722-4.68,16.615,16.615,0,0,1,12.96,5.9l-4.365,4.95a10.227,10.227,0,0,0-8.28-4.14,9.65,9.65,0,0,0-6.772,2.587,9.015,9.015,0,0,0-2.812,6.975,9.519,9.519,0,0,0,2.655,7.042A8.763,8.763,0,0,0,151.6-6.21Zm41.9-9.7a10.293,10.293,0,0,0-2.7-7.178,8.622,8.622,0,0,0-6.637-2.97,8.622,8.622,0,0,0-6.637,2.97,10.293,10.293,0,0,0-2.7,7.178,10.212,10.212,0,0,0,2.7,7.155,8.651,8.651,0,0,0,6.637,2.948A8.651,8.651,0,0,0,190.8-8.753,10.212,10.212,0,0,0,193.5-15.908Zm2.385,11.565A16.162,16.162,0,0,1,184.14.315a16.162,16.162,0,0,1-11.745-4.658,15.539,15.539,0,0,1-4.77-11.588,15.539,15.539,0,0,1,4.77-11.588,16.162,16.162,0,0,1,11.745-4.658,16.162,16.162,0,0,1,11.745,4.658,15.539,15.539,0,0,1,4.77,11.588A15.539,15.539,0,0,1,195.885-4.343ZM230.67-15.908a10.293,10.293,0,0,0-2.7-7.178,8.622,8.622,0,0,0-6.638-2.97,8.622,8.622,0,0,0-6.637,2.97,10.293,10.293,0,0,0-2.7,7.178,10.212,10.212,0,0,0,2.7,7.155,8.651,8.651,0,0,0,6.637,2.948,8.651,8.651,0,0,0,6.638-2.948A10.212,10.212,0,0,0,230.67-15.908Zm2.385,11.565A16.162,16.162,0,0,1,221.31.315a16.162,16.162,0,0,1-11.745-4.658,15.539,15.539,0,0,1-4.77-11.588,15.539,15.539,0,0,1,4.77-11.588,16.162,16.162,0,0,1,11.745-4.658,16.162,16.162,0,0,1,11.745,4.658,15.539,15.539,0,0,1,4.77,11.588A15.539,15.539,0,0,1,233.055-4.343Zm10.71-27.113h7.02V-18.54l11.88-12.915h8.685L258.84-17.55q1.62,2.25,5.985,8.393T271.35,0h-8.19l-9.225-12.42-3.15,3.51V0h-7.02Zm31.95,0h7.02V0h-7.02Zm36.765,0h7.02V0h-7.02L297.5-19.71V0h-7.02V-31.455h6.57l15.435,20.25ZM347.67-16.02h7.065V-4.86Q350.055.36,341.775.36a16,16,0,0,1-11.633-4.59,15.511,15.511,0,0,1-4.7-11.588A15.655,15.655,0,0,1,330.233-27.5a15.952,15.952,0,0,1,11.565-4.68,17.106,17.106,0,0,1,11.768,4.455l-3.645,5.265A13.891,13.891,0,0,0,346.028-25a10.44,10.44,0,0,0-3.848-.7,9.214,9.214,0,0,0-6.75,2.723,9.66,9.66,0,0,0-2.745,7.177,9.732,9.732,0,0,0,2.633,7.132A8.5,8.5,0,0,0,341.6-5.985,12.054,12.054,0,0,0,347.67-7.38Z" transform="translate(-1.62 32.175)"/>
</svg>
